# xmcd
#
# Track frame offsets: 
#        180
#        28870
#        50840
#        71941
#        101218
#        121723
#        135232
#        157146
#        177790
#        195448
#        209737
#        235586
#
# Disc length: 3355 seconds
#
# Revision: 1
# Processed by: cddbd v1.5.2PL0 Copyright (c) Steve Scherf et al.
# Submitted via: ExactAudioCopyFreeDBPlugin 1.0
#
DISCID=ae0d190c
DTITLE=LUTHER ALLISON - Bad Love
DYEAR=1994
DGENRE=Blues
TTITLE0=Bad Love
TTITLE1=I Wanna Know
TTITLE2=She Was Born That Way
TTITLE3=Put Your Money Where Your Mouth Is
TTITLE4=Nobody But You
TTITLE5=You've Been Teasin' Me
TTITLE6=Middle Of The Road
TTITLE7=Love String
TTITLE8=Gave It All
TTITLE9=Soul Fixin' Man
TTITLE10=Freedom
TTITLE11=Things That I Used To Do
EXTD=
EXTT0=
EXTT1=
EXTT2=
EXTT3=
EXTT4=
EXTT5=
EXTT6=
EXTT7=
EXTT8=
EXTT9=
EXTT10=
EXTT11=
PLAYORDER=
